<svg width="245" height="29" viewBox="0 0 245 29" fill="none" xmlns="http://www.w3.org/2000/svg">
<g clip-path="url(#clip0_110_40)">
<path d="M6.43148 9.1341C8.03208 7.83698 9.34237 7.31195 10.9423 7.31195C13.998 7.31195 14.8128 10.0297 14.4345 12.9019L13.2995 21.5803H9.37077L10.4766 13.2108C10.6512 11.8519 10.3602 10.4003 9.31256 10.4003C8.4104 10.4003 7.33364 11.0489 5.99495 12.5622L4.80177 21.5803H0.872314L2.73483 7.55902H6.66358L6.43148 9.1341Z" fill="#3C3C3C"/>
<path d="M26.4243 21.859C22.6702 21.859 19.76 18.8934 19.76 15.0955C19.76 10.8335 23.194 7.31271 27.3847 7.31271C31.1679 7.31271 33.9326 9.90696 33.9326 13.9219C33.9326 18.3993 30.6732 21.859 26.4243 21.859ZM27.2101 10.7092C24.6491 10.7092 23.8343 13.9219 23.8343 15.3418C23.8343 17.4728 25.2894 18.461 26.4527 18.461C28.7227 18.461 29.8576 15.744 29.8576 13.7983C29.8576 11.9445 28.8107 10.7092 27.2101 10.7092Z" fill="#3C3C3C"/>
<path d="M44.6131 9.62824C45.8361 8.02228 46.854 7.31195 47.8151 7.31195C48.6001 7.31195 49.2701 7.74433 50.1716 8.85615L48.3382 12.7166C47.6695 11.6666 47.1159 11.2033 46.4757 11.2033C45.5444 11.2033 44.5258 12.3151 44.09 13.2417L42.9834 21.5803H39.0547L40.9172 7.55902H44.846L44.5549 9.56648L44.6131 9.62824Z" fill="#3C3C3C"/>
<path d="M53.9258 21.5803L55.7883 7.55902H59.7171L57.8545 21.5803H53.9258ZM60.2402 3.66765C60.2402 4.87212 59.338 5.82952 58.2038 5.82952C57.0681 5.82952 56.1666 4.87212 56.1666 3.66765C56.1666 2.46242 57.0688 1.50578 58.2038 1.50578C59.3387 1.50578 60.2402 2.46318 60.2402 3.66765Z" fill="#3C3C3C"/>
<path d="M72.0271 15.7433L75.5193 7.55902H79.6227L70.0191 28.6836H65.8866L69.728 20.2832L65.5076 7.55902H69.4363L72.0271 15.7433Z" fill="#3C3C3C"/>
<path d="M92.5148 20.006C91.2045 21.1796 89.6621 21.8281 88.2368 21.8281C85.2102 21.8281 84.0462 19.3883 84.4536 16.4536L85.6468 7.55902H89.5755L88.5861 15.002C88.2077 17.8125 88.7025 18.739 89.6337 18.739C90.653 18.739 91.7873 18.0294 92.9513 16.7007L94.1452 7.55902H98.074L96.2115 21.5803H92.2827L92.5148 20.006Z" fill="#3C3C3C"/>
<path d="M104.067 21.5803L106.861 0.516735H110.79L109.044 13.5505L109.102 13.6123L113.817 7.55902H118.677L113.439 14.2292L118.532 21.5803H113.759L108.898 14.6616L107.996 21.5803H104.067Z" fill="#3C3C3C"/>
<path d="M123.77 21.5803L125.632 7.55902H129.561L127.698 21.5803H123.77ZM130.085 3.66765C130.085 4.87212 129.182 5.82952 128.048 5.82952C126.913 5.82952 126.011 4.87212 126.011 3.66765C126.011 2.46242 126.913 1.50578 128.048 1.50578C129.182 1.50578 130.085 2.46318 130.085 3.66765Z" fill="#3C3C3C"/>
<path d="M147.749 17.4419C148.855 17.8743 150.106 18.4302 151.357 18.4302C152.142 18.4302 152.638 18.1221 152.638 17.6588C152.638 16.1455 148.244 14.6314 148.244 11.8526C148.244 9.16574 150.251 7.31271 153.162 7.31271C154.559 7.31271 155.81 7.68331 157.324 8.57895L157.004 11.8843C155.578 11.1122 153.861 10.7099 153.191 10.7099C152.668 10.7099 152.318 10.957 152.318 11.3276C152.318 12.8718 156.713 14.0454 156.713 17.4426C156.713 20.006 154.676 21.8281 151.765 21.8281C150.193 21.8281 148.855 21.4575 147.196 20.5612L147.749 17.4419Z" fill="#3C3C3C"/>
<path d="M170.681 20.006C169.371 21.1796 167.829 21.8281 166.404 21.8281C163.376 21.8281 162.213 19.3883 162.62 16.4536L163.814 7.55902H167.742L166.752 15.002C166.375 17.8125 166.869 18.739 167.801 18.739C168.819 18.739 169.954 18.0294 171.118 16.7007L172.311 7.55902H176.24L174.378 21.5803H170.449L170.681 20.006Z" fill="#3C3C3C"/>
<path d="M182.118 11.0489L182.583 7.52814H194.02L187.53 18.0596H193.263L192.769 21.5803H180.749L187.472 11.0489H182.118Z" fill="#3C3C3C"/>
<path d="M206.942 20.006C205.632 21.1796 204.089 21.8281 202.664 21.8281C199.637 21.8281 198.473 19.3883 198.881 16.4536L200.074 7.55902H204.003L203.013 15.002C202.635 17.8125 203.129 18.739 204.061 18.739C205.08 18.739 206.214 18.0294 207.378 16.7007L208.572 7.55902H212.501L210.638 21.5803H206.71L206.942 20.006Z" fill="#3C3C3C"/>
<path d="M217.913 21.5803L220.707 0.516735H224.636L222.89 13.5505L222.948 13.6123L227.662 7.55902H232.522L227.284 14.2292L232.377 21.5803H227.604L222.744 14.6616L221.842 21.5803H217.913Z" fill="#3C3C3C"/>
<path d="M237.615 21.5803L239.477 7.55902H243.406L241.543 21.5803H237.615ZM243.93 3.66765C243.93 4.87212 243.027 5.82952 241.892 5.82952C240.758 5.82952 239.855 4.87212 239.855 3.66765C239.855 2.46242 240.758 1.50578 241.892 1.50578C243.027 1.50578 243.93 2.46318 243.93 3.66765Z" fill="#3C3C3C"/>
</g>
<defs>
<clipPath id="clip0_110_40">
<rect width="245" height="29" fill="white"/>
</clipPath>
</defs>
</svg>
