<svg width="245" height="29" viewBox="0 0 245 29" fill="none" xmlns="http://www.w3.org/2000/svg">
<g clip-path="url(#clip0_113_105)">
<path d="M6.43221 9.13416C8.03281 7.83704 9.34311 7.31201 10.943 7.31201C13.9987 7.31201 14.8135 10.0298 14.4352 12.902L13.3002 21.5804H9.3715L10.4774 13.2108C10.652 11.8519 10.361 10.4004 9.3133 10.4004C8.41114 10.4004 7.33437 11.049 5.99568 12.5623L4.80251 21.5804H0.873047L2.73557 7.55908H6.66432L6.43221 9.13416Z" fill="#2B2B2B"/>
<path d="M26.4251 21.8588C22.6709 21.8588 19.7607 18.8932 19.7607 15.0952C19.7607 10.8333 23.1948 7.3125 27.3854 7.3125C31.1687 7.3125 33.9333 9.90675 33.9333 13.9217C33.9333 18.3991 30.6739 21.8588 26.4251 21.8588ZM27.2108 10.709C24.6499 10.709 23.835 13.9217 23.835 15.3416C23.835 17.4726 25.2901 18.4608 26.4535 18.4608C28.7234 18.4608 29.8584 15.7438 29.8584 13.7981C29.8584 11.9443 28.8114 10.709 27.2108 10.709Z" fill="#2B2B2B"/>
<path d="M44.6136 9.62831C45.8366 8.02234 46.8545 7.31201 47.8155 7.31201C48.6006 7.31201 49.2706 7.74439 50.1721 8.85621L48.3387 12.7167C47.67 11.6666 47.1164 11.2034 46.4761 11.2034C45.5449 11.2034 44.5263 12.3152 44.0905 13.2417L42.9839 21.5804H39.0552L40.9177 7.55908H44.8464L44.5554 9.56654L44.6136 9.62831Z" fill="#2B2B2B"/>
<path d="M53.9263 21.5804L55.7888 7.55911H59.7175L57.855 21.5804H53.9263ZM60.2407 3.66773C60.2407 4.87221 59.3385 5.82961 58.2042 5.82961C57.0686 5.82961 56.1671 4.87221 56.1671 3.66773C56.1671 2.46251 57.0693 1.50586 58.2042 1.50586C59.3392 1.50586 60.2407 2.46326 60.2407 3.66773Z" fill="#2B2B2B"/>
<path d="M72.0278 15.7433L75.52 7.55908H79.6234L70.0198 28.6837H65.8873L69.7288 20.2833L65.5083 7.55908H69.437L72.0278 15.7433Z" fill="#2B2B2B"/>
<path d="M92.5153 20.0061C91.205 21.1796 89.6626 21.8282 88.2373 21.8282C85.2107 21.8282 84.0467 19.3884 84.4541 16.4537L85.6473 7.55908H89.576L88.5866 15.0021C88.2082 17.8125 88.703 18.7391 89.6342 18.7391C90.6535 18.7391 91.7877 18.0295 92.9518 16.7007L94.1457 7.55908H98.0745L96.2119 21.5804H92.2832L92.5153 20.0061Z" fill="#2B2B2B"/>
<path d="M104.068 21.5802L106.862 0.516602H110.791L109.045 13.5504L109.103 13.6121L113.818 7.55889H118.678L113.44 14.2291L118.533 21.5802H113.76L108.899 14.6614L107.997 21.5802H104.068Z" fill="#2B2B2B"/>
<path d="M123.77 21.5804L125.633 7.55911H129.561L127.699 21.5804H123.77ZM130.085 3.66773C130.085 4.87221 129.183 5.82961 128.049 5.82961C126.913 5.82961 126.012 4.87221 126.012 3.66773C126.012 2.46251 126.914 1.50586 128.049 1.50586C129.183 1.50586 130.085 2.46326 130.085 3.66773Z" fill="#2B2B2B"/>
<path d="M147.749 17.4417C148.855 17.874 150.106 18.43 151.358 18.43C152.143 18.43 152.638 18.1219 152.638 17.6586C152.638 16.1453 148.245 14.6312 148.245 11.8524C148.245 9.16553 150.252 7.3125 153.163 7.3125C154.56 7.3125 155.81 7.68311 157.324 8.57874L157.004 11.8841C155.578 11.112 153.861 10.7097 153.192 10.7097C152.668 10.7097 152.319 10.9568 152.319 11.3274C152.319 12.8716 156.713 14.0452 156.713 17.4424C156.713 20.0058 154.676 21.8279 151.766 21.8279C150.194 21.8279 148.855 21.4573 147.196 20.5609L147.749 17.4417Z" fill="#2B2B2B"/>
<path d="M170.682 20.0061C169.372 21.1796 167.83 21.8282 166.404 21.8282C163.377 21.8282 162.214 19.3884 162.621 16.4537L163.814 7.55908H167.743L166.753 15.0021C166.375 17.8125 166.869 18.7391 167.801 18.7391C168.82 18.7391 169.955 18.0295 171.119 16.7007L172.312 7.55908H176.241L174.378 21.5804H170.45L170.682 20.0061Z" fill="#2B2B2B"/>
<path d="M182.119 11.0486L182.584 7.52783H194.021L187.531 18.0592H193.264L192.769 21.58H180.75L187.473 11.0486H182.119Z" fill="#2B2B2B"/>
<path d="M206.943 20.0061C205.632 21.1796 204.09 21.8282 202.665 21.8282C199.638 21.8282 198.474 19.3884 198.881 16.4537L200.075 7.55908H204.003L203.014 15.0021C202.635 17.8125 203.13 18.7391 204.061 18.7391C205.081 18.7391 206.215 18.0295 207.379 16.7007L208.573 7.55908H212.502L210.639 21.5804H206.71L206.943 20.0061Z" fill="#2B2B2B"/>
<path d="M217.913 21.5802L220.708 0.516602H224.636L222.89 13.5504L222.948 13.6121L227.663 7.55889H232.523L227.285 14.2291L232.377 21.5802H227.605L222.745 14.6614L221.843 21.5802H217.913Z" fill="#2B2B2B"/>
<path d="M237.615 21.5804L239.478 7.55911H243.407L241.544 21.5804H237.615ZM243.93 3.66773C243.93 4.87221 243.028 5.82961 241.893 5.82961C240.758 5.82961 239.856 4.87221 239.856 3.66773C239.856 2.46251 240.758 1.50586 241.893 1.50586C243.028 1.50586 243.93 2.46326 243.93 3.66773Z" fill="#2B2B2B"/>
</g>
<defs>
<clipPath id="clip0_113_105">
<rect width="245" height="29" fill="white" transform="translate(0.000732422)"/>
</clipPath>
</defs>
</svg>
